# xmcd CD database file
#
# Track frame offsets:
#	150
#	19442
#	38582
#	49302
#	68172
#	80737
#	103402
#	128110
#	143730
#	167115
#	188262
#	204817
#	221502
#	240625
#	260432
#	273752
#	301880
#
# Disc length: 4210 seconds
#
# Revision: 9
# Processed by: cddbd v1.5.2PL0 Copyright (c) Steve Scherf et al.
# Submitted via: CDex 1.51
#
DISCID=ec107011
DTITLE=Ella Fitzgerald - Sings The Duke Ellington Song Book [Remastered 1999 - Disc 2]
DYEAR=1957
DGENRE=Vocal Standards - Jazz
TTITLE0=Just Squeeze Me (But Don't Tease Me)
TTITLE1=It Don't Mean a Thing (If It Ain't Got That Swing)
TTITLE2=Azure
TTITLE3=I Let a Song Go Out of My Heart
TTITLE4=In a Sentimental Mood
TTITLE5=Don't Get Around Much Anymore
TTITLE6=Prelude to a Kiss
TTITLE7=Mood Indigo
TTITLE8=In a Mellow Tone
TTITLE9=Love You Madly
TTITLE10=Lush Life
TTITLE11=Squatty Roo
TTITLE12=I'm Just a Lucky So-and-So
TTITLE13=All Too Soon
TTITLE14=Everything But You
TTITLE15=I Got It Bad (And That Ain't Good)
TTITLE16=Bli-Blip
EXTD=YEAR: 1957
EXTT0=
EXTT1=
EXTT2=
EXTT3=
EXTT4=
EXTT5=
EXTT6=
EXTT7=
EXTT8=
EXTT9=
EXTT10=
EXTT11=
EXTT12=
EXTT13=
EXTT14=
EXTT15=
EXTT16=
PLAYORDER=
